<?xml version="1.0" standalone="no"?>
<!DOCTYPE svg PUBLIC "-//W3C//DTD SVG 20010904//EN"
 "http://www.w3.org/TR/2001/REC-SVG-20010904/DTD/svg10.dtd">
<svg version="1.0" xmlns="http://www.w3.org/2000/svg"
 width="1159.000000pt" height="1159.000000pt" viewBox="0 0 1159.000000 1159.000000"
 preserveAspectRatio="xMidYMid meet">

<g transform="translate(0.000000,1159.000000) scale(0.100000,-0.100000)"
fill="#000000" stroke="none">
<path d="M5395 11570 c-1438 -108 -2747 -714 -3740 -1731 -1332 -1365 -1903
-3258 -1549 -5134 415 -2202 2095 -3984 4270 -4528 298 -75 558 -120 894 -154
241 -24 814 -24 1050 0 540 56 1011 163 1475 334 1972 729 3402 2476 3719
4543 46 296 57 443 63 780 6 344 -3 543 -37 820 -232 1875 -1356 3509 -3030
4405 -656 351 -1371 567 -2160 651 -173 18 -777 27 -955 14z m760 -540 c454
-33 880 -118 1305 -259 1132 -378 2122 -1151 2763 -2160 467 -735 739 -1556
807 -2430 13 -175 13 -610 -1 -782 -87 -1114 -496 -2119 -1213 -2984 -142
-171 -515 -539 -686 -678 -494 -400 -978 -676 -1553 -886 -901 -329 -1931
-399 -2882 -196 -1434 307 -2676 1201 -3427 2470 -599 1012 -837 2198 -677
3380 119 887 478 1753 1022 2465 208 272 513 596 757 804 682 583 1506 987
2365 1161 250 50 403 71 750 98 99 8 543 6 670 -3z"/>
<path d="M7298 7812 c-769 -515 -1397 -940 -1398 -943 0 -4 30 -12 66 -18 334
-59 632 -279 783 -579 40 -80 88 -222 97 -289 3 -29 12 -57 18 -62 8 -7 269
390 911 1386 853 1323 930 1443 923 1443 -2 0 -632 -422 -1400 -938z"/>
<path d="M3864 4358 c-461 -717 -871 -1354 -911 -1415 -40 -62 -71 -113 -70
-113 9 0 2783 1866 2787 1874 3 5 -28 15 -68 22 -333 56 -627 275 -781 582
-43 84 -89 225 -97 295 -4 31 -10 57 -14 57 -4 0 -384 -586 -846 -1302z"/>
</g>
</svg>
